<?xml version="1.0" encoding="UTF-8"?>
<!DOCTYPE svg PUBLIC "-//W3C//DTD SVG 1.1//EN" "http://www.w3.org/Graphics/SVG/1.1/DTD/svg11.dtd">
<!-- Creator: CorelDRAW X7 -->
<svg xmlns="http://www.w3.org/2000/svg" xml:space="preserve" width="11.6929in" height="8.26772in" version="1.1" style="shape-rendering:geometricPrecision; text-rendering:geometricPrecision; image-rendering:optimizeQuality; fill-rule:evenodd; clip-rule:evenodd"
viewBox="0 0 11693 8268"
 xmlns:xlink="http://www.w3.org/1999/xlink">
 <defs>
  <style type="text/css">
   <![CDATA[
    .fil2 {fill:#13787A}
    .fil0 {fill:#F8993D}
    .fil1 {fill:#DB353A;fill-rule:nonzero}
   ]]>
  </style>
 </defs>
 <g id="Layer_x0020_1">
  <metadata id="CorelCorpID_0Corel-Layer"/>
  <g id="_1507091320896">
   <path class="fil0" d="M9973 3789l318 -734 873 0 -319 2349 -729 0 65 -369 -365 883 -767 0 223 -514 -368 0 -4 -88 -180 602 -708 0 151 -514 -497 0 65 -370 0 0 -364 884 -768 0 223 -514 -416 0 -153 514 -731 0 166 -563c-98,40 -219,49 -361,49l-1349 0 65 -369 -364 883 -768 0 223 -514 -408 0 -152 514 -734 0 429 -1456c-74,40 -164,61 -272,60l-282 -1 -263 883 -782 0 735 -2498 -297 0 447 -704 1005 0c312,0 465,236 378,526l-97 327 731 0c261,0 418,199 344,450l-89 303 326 -753 873 0 -122 897 264 -897 924 0c102,0 187,37 246,97l29 -97 1372 0 -216 734 318 -734 873 0 -122 896 264 -896 1333 0 -216 734z"/>
  </g>
  <path class="fil1" d="M1712 4005l345 -1178 -475 0 -715 2430 475 0 263 -884 393 2c282,3 353,-192 390,-313l409 -1376c57,-193 -22,-337 -237,-337l-924 0 -260 410 850 0c68,0 97,42 77,113l-300 1023c-28,90 -68,110 -121,110l-170 0zm1162 376l141 0c51,0 56,37 45,71l-237 805 426 0 221 -749c45,-147 -17,-214 -82,-226 104,0 164,-62 181,-121l206 -698c40,-136 -20,-260 -203,-260l-778 0 -757 2568 427 0 410 -1390zm87 -302l161 -546 133 0c65,0 82,31 65,85l-113 382c-20,62 -56,79 -99,79l-147 0zm1306 500l-206 0 370 -938 -164 938zm-687 1192l365 -884 274 0 -65 370 424 0 279 -2054 -607 0 -1114 2568 444 0 0 0zm2162 -2238c65,0 71,31 54,91l-359 1221c-14,48 -34,70 -102,70l-136 0 407 -1382 136 0 0 0zm-1068 1724l653 0c293,0 415,-34 486,-277l455 -1546c33,-115 -23,-231 -176,-231l-814 0 -604 2054 0 0zm2868 -2054l-424 0 -243 822 -215 0 241 -822 -424 0 -758 2568 424 0 410 -1381 215 0 -255 867 424 0 605 -2054zm413 1376l-207 0 371 -938 -164 938zm-687 1192l364 -884 275 0 -65 370 423 0 280 -2054 -607 0 -1114 2568 444 0 0 0zm941 0l401 0 399 -1333 36 819 342 0 605 -2054 -412 0 -235 794 -14 -794 -365 0 -757 2568 0 0zm2196 -1192l-207 0 371 -938 -164 938zm-687 1192l365 -884 274 0 -65 370 424 0 279 -2054 -607 0 -1114 2568 444 0 0 0z"/>
  <g id="_1448371117664">
   <path id="_1" class="fil2" d="M1168 4233c397,-140 846,-248 1232,-210l-12 39c-37,121 -108,316 -390,313l-393 -2 -263 884 -475 0 301 -1024z"/>
  </g>
  <g id="_1448371117664_0">
   <path class="fil2" d="M2546 4045c82,18 160,43 233,78 212,101 449,215 704,326 -2,18 -6,38 -13,59l-221 749 -426 0 237 -805c11,-34 6,-71 -45,-71l-141 0 -410 1390 -427 0 509 -1726z"/>
  </g>
  <g id="_1448371117664_1">
   <path class="fil2" d="M3674 4531c302,125 625,241 958,326l-54 400 -424 0 65 -370 -274 0 -365 884 0 0 -444 0 538 -1240z"/>
  </g>
  <g id="_1448371117664_2">
   <path class="fil2" d="M4781 4892c338,75 684,114 1030,94 -71,237 -193,271 -484,271l-653 0 0 0 107 -365z"/>
  </g>
  <g id="_1448371117664_3">
   <path class="fil2" d="M5954 4974c130,-14 259,-37 387,-69 21,-6 42,-11 64,-18l-262 884 -424 0 235 -797zm691 -165c150,-55 312,-122 482,-196l-190 644 -424 0 132 -448z"/>
  </g>
  <g id="_1448371117664_4">
   <path class="fil2" d="M7374 4504c158,-71 322,-145 490,-218l-116 293 207 0 63 -359c135,-58 272,-114 411,-166l-164 1203 -423 0 65 -370 -275 0 -364 884 0 0 -444 0 550 -1267z"/>
  </g>
  <g id="_1448371117664_5">
   <path class="fil2" d="M8748 3940c197,-64 396,-119 593,-158l4 215 68 -229c143,-25 286,-43 427,-49l-453 1538 -342 0 -36 -819 -399 1333 -401 0 0 0 539 -1831z"/>
  </g>
  <g id="_1448371117664_6">
   <path class="fil2" d="M10161 3725c119,10 236,30 351,60l-314 794 207 0 137 -786c121,34 239,80 354,140l-180 1324 -424 0 65 -370 -274 0 -365 884 0 0 -444 0 887 -2046z"/>
  </g>
 </g>
</svg>
